<svg xmlns="http://www.w3.org/2000/svg"  viewBox="0 0 192 192">
    <title>generic</title>
    <path fill="none" d="M0 0h192v192H0z"></path>
    <circle fill="#1A73E8" cx="96" cy="96" r="88"></circle>
    <path fill="#185ABC" d="M128 134H68c-8.57 0-15.97-6.47-16-14.95V119v5c0 8.5 7.41 16 16 16h60c8.59 0 16-7.5 16-16v-5c0 8.5-7.41 15-16 15zM52 91v-6.78L40.84 65.79c-.64-.96-.88-1.92-.81-2.79H40l.01 7.77c.03.74.3 1.49.76 2.24L52 91z"></path>
    <path fill="#FFF" d="M128 60H43.98c-3.4 0-5.24 2.92-3 6L52 85v34c0 8.69 6.36 16 15 16h61c8.64 0 16-7.31 16-16V76c0-8.69-7.36-16-16-16z"></path>
    <path fill="#8AB4F8" d="M127 84H69c-2.54 0-5-1.51-5-4s2.46-4 5-4h58c2.54 0 5 1.51 5 4s-2.46 4-5 4zM127 100H69c-2.54 0-5-1.51-5-4s2.46-4 5-4h58c2.54 0 5 1.51 5 4s-2.46 4-5 4zM111 116H69c-2.52 0-5-1.51-5-4s2.48-4 5-4h42c2.52 0 5 1.51 5 4s-2.48 4-5 4z"></path>
</svg>