<?xml version="1.0" encoding="UTF-8"?>
<svg width="30px" height="36px" viewBox="0 0 30 36" version="1.1" xmlns="http://www.w3.org/2000/svg" xmlns:xlink="http://www.w3.org/1999/xlink">
    <!-- Generator: Sketch 50.2 (55047) - http://www.bohemiancoding.com/sketch -->
    <title>ic_android_24px</title>
    <desc>Created with Sketch.</desc>
    <defs>
        <path d="M6,27 C6,27.825 6.675,28.5 7.5,28.5 L9,28.5 L9,33.75 C9,34.995 10.005,36 11.25,36 C12.495,36 13.5,34.995 13.5,33.75 L13.5,28.5 L16.5,28.5 L16.5,33.75 C16.5,34.995 17.505,36 18.75,36 C19.995,36 21,34.995 21,33.75 L21,28.5 L22.5,28.5 C23.325,28.5 24,27.825 24,27 L24,12 L6,12 L6,27 Z M2.25,12 C1.005,12 0,13.005 0,14.25 L0,24.75 C0,25.995 1.005,27 2.25,27 C3.495,27 4.5,25.995 4.5,24.75 L4.5,14.25 C4.5,13.005 3.495,12 2.25,12 Z M27.75,12 C26.505,12 25.5,13.005 25.5,14.25 L25.5,24.75 C25.5,25.995 26.505,27 27.75,27 C28.995,27 30,25.995 30,24.75 L30,14.25 C30,13.005 28.995,12 27.75,12 Z M20.295,3.24 L22.245,1.29 C22.545,0.99 22.545,0.525 22.245,0.225 C21.945,-0.075 21.48,-0.075 21.18,0.225 L18.96,2.445 C17.775,1.845 16.425,1.5 15,1.5 C13.56,1.5 12.21,1.845 11.01,2.445 L8.775,0.225 C8.475,-0.075 8.01,-0.075 7.71,0.225 C7.41,0.525 7.41,0.99 7.71,1.29 L9.675,3.255 C7.455,4.89 6,7.515 6,10.5 L24,10.5 C24,7.515 22.545,4.875 20.295,3.24 Z M12,7.5 L10.5,7.5 L10.5,6 L12,6 L12,7.5 Z M19.5,7.5 L18,7.5 L18,6 L19.5,6 L19.5,7.5 Z" id="path-1"></path>
    </defs>
    <g id="ic_android_24px" stroke="none" stroke-width="1" fill="none" fill-rule="evenodd">
        <g>
            <mask id="mask-2" fill="white">
                <use xlink:href="#path-1"></use>
            </mask>
            <use id="Shape" fill="#8BC34A" fill-rule="nonzero" xlink:href="#path-1"></use>
        </g>
    </g>
</svg>