<?xml version="1.0" encoding="utf-8"?>
<!-- Generator: Adobe Illustrator 23.0.1, SVG Export Plug-In . SVG Version: 6.00 Build 0)  -->
<svg version="1.1" id="logo_x5F_chat_x5F_192px_x5F_clr"
	 xmlns="http://www.w3.org/2000/svg" xmlns:xlink="http://www.w3.org/1999/xlink" x="0px" y="0px" viewBox="0 0 192 192"
	 style="enable-background:new 0 0 192 192;" xml:space="preserve">
<style type="text/css">
	.st0{fill:none;}
	.st1{fill:#00897B;}
	.st2{opacity:0.2;fill:#FFFFFF;enable-background:new    ;}
	.st3{opacity:0.2;}
	.st4{fill:#263238;}
	.st5{clip-path:url(#SVGID_2_);fill:url(#SVGID_3_);}
	.st6{fill:#F5F5F5;}
	.st7{opacity:0.2;fill:#FFFFFF;}
	.st8{clip-path:url(#handle_of_phone_1_);fill:#E2E2E2;}
	.st9{fill:#CFCFCF;}
	.st10{fill:#126B64;}
	.st11{opacity:0.4;fill:#FFFFFF;}
	.st12{display:none;opacity:0.2;}
	.st13{display:inline;fill:#FFFFFF;}
	.st14{display:inline;fill:#263238;}
	.st15{fill:url(#Sheen_1_);}
</style>
<g>
	<rect class="st0" width="192" height="192"/>
	<g>
		<path id="Base" class="st1" d="M172,84c0-42-34.1-76-76-76S20,42,20,84c0,39.8,36.3,72,76,72v28C142.2,160.6,172,122.9,172,84z"/>
		<path id="Base_top_highlight" class="st2" d="M96,9c41.8,0,75.7,33.8,76,75.5c0-0.2,0-0.3,0-0.5c0-42-34.1-76-76-76S20,42,20,84
			c0,0.2,0,0.3,0,0.5C20.3,42.8,54.2,9,96,9z"/>
		<g id="Base_bottom_shadow" class="st3">
			<path class="st4" d="M96,183v1c46.2-23.4,76-61.1,76-100c0-0.2,0-0.3,0-0.5C171.7,122.2,142,159.7,96,183z"/>
			<path class="st4" d="M96,155c-39.6,0-75.7-32-76-71.5c0,0.2,0,0.3,0,0.5c0,39.8,36.3,72,76,72V155z"/>
		</g>
		<g id="Long_shadow">
			<g>
				<defs>
					<path id="SVGID_1_" d="M172,84c0-42-34.1-76-76-76S20,42,20,84c0,39.8,36.3,72,76,72v28C142.2,160.6,172,122.9,172,84z"/>
				</defs>
				<clipPath id="SVGID_2_">
					<use xlink:href="#SVGID_1_"  style="overflow:visible;"/>
				</clipPath>
				
					<linearGradient id="SVGID_3_" gradientUnits="userSpaceOnUse" x1="515.3456" y1="1091.8215" x2="1363.2489" y2="243.9184" gradientTransform="matrix(0.125 0 0 -0.125 0 192)">
					<stop  offset="0" style="stop-color:#263238;stop-opacity:0.2"/>
					<stop  offset="1" style="stop-color:#263238;stop-opacity:2.000000e-02"/>
				</linearGradient>
				<path class="st5" d="M83.8,44.7l-8.1,3.9l-10.1,3l-2.8,1.1l1.7,11.2l15.6,37.6l91.7,90.6H192v-39.1L83.8,44.7z"/>
			</g>
		</g>
		<g id="Main_icon_and_shadow">
			
				<image style="display:none;overflow:visible;opacity:0.2;enable-background:new    ;" width="471" height="458" xlink:href="86D118E0.png"  transform="matrix(0.238 0 0 0.238 44.0413 31.5081)">
			</image>
			<g>
				<g>
					<g id="Whole_Phone">
						
							<image style="overflow:visible;opacity:0.125;" width="106" height="105" xlink:href="86D118E3.png"  transform="matrix(1 0 0 1 49 36)">
						</image>
						<g>
							<path class="st6" d="M81.6,44c2.1,0,2.8,0.8,3.1,3c0.7,4.2,1.6,11.5,2.9,17c0.3,1.5-0.3,2.7-1.4,3.8c-2.5,2.5-5,5.3-7.5,7.7
								l-1.4,1.8c6.3,11.3,16.6,20,27.9,26.3l1,0.6c0,0,5.8-5.6,8.1-8c1.3-1.4,2.1-1.9,3.9-1.5c5.4,0.9,11.7,2,17.1,2.8
								c2.3,0.4,2.8,1.2,2.8,3.5c0,6.4,0,12.9,0,19.3c0,2.7-1.5,3.9-4.2,3.8c-26.2-0.6-48.2-12.7-62.4-33.2
								c-7.1-10-11.2-21.3-12.8-33.4c-0.4-3.2-0.7-6.2-0.6-9.7c-0.1-2.3,1.4-3.7,3.5-3.7C64.9,44,78.3,44,81.6,44z"/>
						</g>
					</g>
					<path id="Mouth_Shine" class="st7" d="M114.2,97.2c1.3-1.4,2.1-1.9,3.9-1.5c5.4,0.9,11.7,2,17.1,2.8c2.3,0.4,2.8,1.2,2.8,3.5
						c0,3,0,6.1,0,9.1c0-3.4,0-6.8,0-10.1c0-2.3-0.4-3.1-2.8-3.5c-5.4-0.8-11.7-1.9-17.1-2.8c-1.8-0.3-2.6,0.2-3.9,1.5
						c-2.3,2.4-17.9,17.8-17.9,17.8c0.2,0.1,0.4,0.2,0.6,0.4C96.9,114.3,111.9,99.6,114.2,97.2z"/>
					<g id="phone_handle">
						<defs>
							<path id="handle_of_phone" d="M106.2,104.2l-14.1,14l-43.6-12.7c6.2-6.2,13.5-13.4,19.7-19.6c4.5-4.5,7.8-7.9,12.3-12.3
								C89,83.8,97.6,94,106.2,104.2z"/>
						</defs>
						<clipPath id="handle_of_phone_1_">
							<use xlink:href="#handle_of_phone"  style="overflow:visible;"/>
						</clipPath>
						<path id="Whole_Phone_1_" class="st8" d="M81.5,44c2.1,0,2.9,0.9,3.2,3c0.7,4.2,1.7,11.6,3,17.1c0.3,1.5-0.3,2.8-1.4,3.9
							c-2.5,2.5-5.2,5-7.8,7.5c-0.2,0.2-0.3,0.3-0.3,0.5c0,0.1-0.3,0-0.3,0c0.1,0.2,0.2,0.4,0.4,0.6c0.2,0.3,0.3,0.6,0.3,0.6
							c0.3,0.5,1.7,3.1,2.4,4.2c1.5,2.4,3.9,5.7,7.9,9.8c4.7,4.9,10.1,9,16.2,12.4c0.8,0.5,5.4,3,5.4,3l27.5,13.6
							c0,0-1.5,3.9-4.2,3.8c-26.2-0.6-48.2-12.7-62.4-33.2c-7.1-10-11.2-21.3-12.8-33.4c-0.4-3.2-0.5-6.5-0.6-9.8
							c-0.1-2.3,1.3-3.6,3.4-3.6C64.8,44,78.2,44,81.5,44z"/>
					</g>
					<polygon class="st9" points="78,76 68.2,85.9 68.5,86.4 78.4,76.6 					"/>
					<path id="Bottom_Shine" class="st10" d="M86.3,67.8c0.8-0.8,1.3-1.5,1.5-2.4c0.2,1.3-0.4,2.4-1.5,3.4c-2.5,2.5-7.9,7.7-7.9,7.8
						L78,76C78,76,83.8,70.3,86.3,67.8z M138,120.1c0,2.7-1.6,3.9-4.3,3.8c-26.2-0.6-48.2-12.7-62.4-33.2
						c-7.1-10-11.1-21.3-12.8-33.5c-0.4-3.1-0.4-4.7-0.4-4.5c0.1,3.3-0.1,2.3,0.4,5.5c1.6,12.1,5.7,23.4,12.8,33.4
						c14.3,20.5,36.2,32.6,62.4,33.2c2.7,0.1,4.3-1.2,4.3-3.9L138,120.1z"/>
					<path id="Top_Shine" class="st11" d="M78.7,77.3c6,11.5,16.2,20.8,27.5,26.9c0.8,0.4-0.7,0.7,0,0c2.3-2.4,5.7-5.6,8.1-8
						c1.3-1.4,2.1-1.9,3.9-1.5c5.4,0.9,11.7,2,17.1,2.8c2.3,0.4,2.8,1.2,2.8,3.5c0,3.4,0,6.8,0,10.1c0-3.1,0-6.1,0-9.1
						c0-2.3-0.4-3.1-2.8-3.5c-5.4-0.8-11.7-1.9-17.1-2.8c-1.8-0.3-2.6,0.2-3.9,1.5c-2.3,2.4-5.1,4.9-7.4,7.3
						c-0.7,0.7-0.9,0.6-1.7,0.2C93.8,98.3,85,89.5,78.7,78.2c-0.1-0.1-1.1-1.8-1.1-1.8L78,76C78.2,76.3,78.2,76.3,78.7,77.3z
						 M61.4,45c3.4,0,16.8,0,20.1,0c2.1,0,2.9,0.9,3.2,3c0.7,4.2,1.5,11.6,2.8,17.1c0,0.1,0,0.1,0.1,0.2c0.1-0.4,0.1-0.8,0-1.2
						c-1.3-5.5-2.2-12.9-2.9-17.2c-0.3-2.1-1.1-3-3.2-3c-3.3,0-16.7,0-20.1,0c-2.1,0-3.5,1.2-3.4,3.5c0,0.2,0,0.6,0,0.7
						C58.1,46.2,59.5,45,61.4,45z"/>
				</g>
			</g>
		</g>
		<g id="Icon_shadow_and_highlight" class="st12">
			<path class="st13" d="M110.7,112.4c-4.3,2.3-9.1,3.5-14.6,3.5c-4.6,0-9-0.8-13.2-2.6s-7.8-4.1-10.9-7.1s-5.6-6.6-7.5-10.7
				c-1.8-4-2.7-8.4-2.7-13.1c0,0.2,0,0.3,0,0.5c0,4.9,0.9,9.4,2.8,13.6c1.8,4.2,4.3,7.7,7.5,10.7c3.1,3,6.8,5.3,10.9,7.1
				s8.5,2.6,13.2,2.6c5.4,0,10.3-1.2,14.6-3.5l3.1,7.9c0.1-0.1,0.2-0.1,0.3-0.2L110.7,112.4z"/>
			<path class="st13" d="M136.8,65.2c-2.2-5.2-5.2-9.7-9.1-13.6c-3.9-3.9-8.5-7-13.9-9.2S102.5,39,96.2,39c-6.4,0-12.3,1.1-17.7,3.4
				s-10,5.3-14,9.3c-3.9,3.9-7,8.5-9.2,13.7C53.1,70.6,52,76.1,52,82c0,0.2,0,0.3,0,0.5c0.1-5.7,1.2-11.1,3.3-16.2
				c2.2-5.2,5.3-9.8,9.2-13.7s8.6-7,14-9.3c5.4-2.3,11.3-3.4,17.7-3.4c6.3,0,12.2,1.1,17.6,3.4c5.4,2.3,10,5.3,13.9,9.2
				s6.9,8.4,9.1,13.6c2.1,5,3.2,10.3,3.2,16c0-0.2,0-0.3,0-0.4C140,75.9,138.9,70.4,136.8,65.2z"/>
			<rect x="107.5" y="61.3" class="st13" width="9.5" height="1"/>
			<path class="st13" d="M78.7,67.1c1.9-2,4.2-3.6,6.8-4.7c2.6-1.1,5.3-1.7,8.1-1.7s5.4,0.6,7.6,1.7c2.2,1.1,4.1,2.6,5.6,4.4h0.7v-1
				h-0.7c-1.5-1.8-3.4-3.3-5.6-4.4c-2.2-1.1-4.8-1.7-7.6-1.7c-2.8,0-5.6,0.6-8.1,1.7c-2.6,1.1-4.8,2.7-6.8,4.7
				c-1.9,2-3.5,4.4-4.7,7.2s-1.7,5.8-1.7,9.2c0,0.2,0,0.3,0,0.5c0.1-3.1,0.6-6,1.7-8.7C75.2,71.5,76.7,69.1,78.7,67.1z"/>
			<path class="st13" d="M103.5,91.9c-1.2,1.1-2.5,1.9-4,2.5c-1.5,0.6-3.1,0.9-4.7,0.9s-3.2-0.3-4.7-0.9c-1.5-0.6-2.8-1.4-4-2.5
				c-1.2-1.1-2.1-2.5-2.8-4.1c-0.6-1.5-0.9-3.1-1-4.9c0,0.2,0,0.3,0,0.5c0,2,0.3,3.8,1,5.4c0.7,1.6,1.6,3,2.8,4.1s2.5,1.9,4,2.5
				c1.5,0.6,3.1,0.9,4.7,0.9c1.6,0,3.2-0.3,4.7-0.9c1.5-0.6,2.8-1.4,4-2.5c1.2-1.1,2.1-2.4,2.8-4c0.7-1.6,1-3.4,1-5.5
				c0-0.2,0-0.3,0-0.5c-0.1,1.8-0.4,3.5-1,5C105.6,89.5,104.7,90.8,103.5,91.9z"/>
			<path class="st13" d="M129.1,91.8c-0.6,1.4-1.3,2.6-2.3,3.5s-2.2,1.3-3.6,1.3c-2.1,0-3.6-0.8-4.7-2.3c-1-1.5-1.5-3.2-1.5-4.9v1
				c0,1.8,0.5,3.4,1.5,4.9c1,1.5,2.6,2.3,4.7,2.3c1.4,0,2.6-0.4,3.6-1.3c1-0.9,1.7-2.1,2.3-3.5c0.6-1.4,0.9-3.1,1.2-4.8
				c0.2-1.8,0.3-3.6,0.3-5.3c0-0.2,0-0.4,0-0.6c0,1.6-0.1,3.3-0.3,4.9C130,88.7,129.6,90.3,129.1,91.8z"/>
			<path class="st14" d="M138.9,90.9c-0.8,2.8-1.9,5.3-3.3,7.4c-1.5,2.1-3.3,3.8-5.5,5c-2.2,1.2-4.7,1.8-7.6,1.8s-5.4-0.7-7.6-2.1
				c-2.2-1.4-4-3.4-5.3-6.1c-1.7,2.6-3.9,4.6-6.5,6.1c-2.6,1.4-5.6,2.1-9.1,2.1c-3.1,0-5.9-0.6-8.5-1.7c-2.6-1.1-4.9-2.7-6.9-4.7
				c-2-2-3.5-4.4-4.7-7.2c-1.1-2.6-1.6-5.5-1.7-8.7c0,0.2,0,0.3,0,0.5c0,3.3,0.6,6.4,1.7,9.2s2.7,5.2,4.7,7.2s4.3,3.6,6.9,4.7
				s5.4,1.7,8.5,1.7c3.4,0,6.5-0.7,9.1-2.1c2.6-1.4,4.8-3.4,6.5-6.1c1.3,2.6,3,4.6,5.3,6.1s4.8,2.1,7.6,2.1c2.8,0,5.4-0.6,7.6-1.8
				c2.2-1.2,4-2.9,5.5-5c1.5-2.1,2.6-4.6,3.3-7.4s1.1-5.9,1.1-9.1c0-0.2,0-0.4,0-0.6C139.9,85.3,139.6,88.2,138.9,90.9z"/>
			<path class="st14" d="M71.8,58.7c3.1-3,6.7-5.3,10.9-7.1c4.2-1.7,8.7-2.6,13.4-2.6c4.9,0,9.5,0.9,13.7,2.7
				c4.2,1.8,7.8,4.2,10.9,7.3c3.1,3.1,5.5,6.6,7.2,10.7c1.7,3.9,2.6,8,2.6,12.3c0-0.2,0-0.3,0-0.4c0-4.5-0.9-8.8-2.6-12.9
				c-1.8-4.1-4.2-7.6-7.2-10.7c-3.1-3.1-6.7-5.5-10.9-7.3c-4.2-1.8-8.7-2.7-13.7-2.7c-4.8,0-9.3,0.8-13.4,2.6
				c-4.2,1.7-7.8,4.1-10.9,7.1c-3.1,3-5.5,6.6-7.3,10.7c-1.8,4.2-2.7,8.7-2.7,13.6c0,0.2,0,0.3,0,0.5c0.1-4.7,1-9.1,2.7-13.1
				C66.3,65.3,68.8,61.7,71.8,58.7z"/>
			<path class="st14" d="M106.3,77c-0.7-1.6-1.6-2.9-2.8-4c-1.2-1.1-2.5-1.9-4-2.5c-1.5-0.6-3.1-0.9-4.7-0.9s-3.2,0.3-4.7,0.9
				c-1.5,0.6-2.8,1.4-4,2.5c-1.2,1.1-2.1,2.5-2.8,4.1c-0.7,1.6-1,3.4-1,5.4c0,0.2,0,0.3,0,0.5c0.1-1.8,0.4-3.4,1-4.9
				c0.7-1.6,1.6-3,2.8-4.1s2.5-1.9,4-2.5c1.5-0.6,3.1-0.9,4.7-0.9c1.6,0,3.2,0.3,4.7,0.9c1.5,0.6,2.8,1.4,4,2.5
				c1.2,1.1,2.1,2.4,2.8,4c0.6,1.4,0.9,3.1,1,5c0-0.2,0-0.3,0-0.5C107.3,80.4,106.9,78.6,106.3,77z"/>
			<path class="st14" d="M96.2,126c6.6,0,12.6-1.3,18.1-3.8l-0.3-0.8c-5.4,2.4-11.3,3.7-17.7,3.7c-6.3,0-12.2-1.1-17.7-3.4
				c-5.3-2.2-9.9-5.2-13.8-9l0,0l5.5,5.5c2.5,1.7,5.3,3.2,8.2,4.5C83.9,124.9,89.8,126,96.2,126z"/>
		</g>
		
			<radialGradient id="Sheen_1_" cx="336" cy="1296" r="1237.8192" gradientTransform="matrix(0.125 0 0 -0.125 0 192)" gradientUnits="userSpaceOnUse">
			<stop  offset="0" style="stop-color:#FFFFFF;stop-opacity:0.1"/>
			<stop  offset="1" style="stop-color:#FFFFFF;stop-opacity:0"/>
		</radialGradient>
		<path id="Sheen" class="st15" d="M172,84c0-42-34.1-76-76-76S20,42,20,84c0,39.8,36.3,72,76,72v28C142.2,160.6,172,122.9,172,84z"
			/>
	</g>
</g>
<image style="display:none;overflow:visible;" width="768" height="768" xlink:href="product_logo_google_voice_color_192.png"  transform="matrix(0.25 0 0 0.25 0 0)">
</image>
</svg>
