<svg version="1.1" id="Google_Maps" data-name="Google Maps" xmlns="http://www.w3.org/2000/svg" xmlns:xlink="http://www.w3.org/1999/xlink" x="0px" y="0px"
	 viewBox="0 0 192 192" enable-background="new 0 0 192 192" xml:space="preserve">
    <defs>
        <clipPath id="clip-path">
            <rect id="SVGID" width="192" height="192" style="fill:none" />
        </clipPath>
        <clipPath id="clip-path-2">
            <path id="SVGID-2" data-name="SVGID" d="M147.99974,3.99667a39.92984,39.92984,0,0,0-31.97336,15.98668h-84.053a12.0392,12.0392,0,0,0-11.97771,11.99v128.0164a12.03921,12.03921,0,0,0,11.97771,12.0023h128.0164a12.0392,12.0392,0,0,0,12.0023-12.0023V81.655c8.39916-12.29744,15.98668-23.36514,15.98668-37.65478a39.99129,39.99129,0,0,0-39.979-40.00358Z" style="fill:none" />
        </clipPath>
        <clipPath id="clip-path-3">
            <path id="SVGID-3" data-name="SVGID" d="M31.99795,19.99564h127.9918a12.0023,12.0023,0,0,1,12.0023,12.0023V159.98975a12.0023,12.0023,0,0,1-12.0023,12.0023H31.99795a12.00231,12.00231,0,0,1-12.00231-12.00231V31.99795A12.00231,12.00231,0,0,1,31.99795,19.99564Z" style="fill:none" />
        </clipPath>
        <filter id="material-drop-shadow-2" x="-50" width="1050" height="242" name="material-drop-shadow-2">
            <feGaussianBlur result="blur" stdDeviation="8" in="SourceGraphic" />
            <feOffset result="offsetBlurredGraphic" dx="9" dy="8" in="blur" />
        </filter>
        <radialGradient id="radial-gradient" cx="24.16448" cy="-10900.85402" r="204.88772" gradientTransform="translate(0 10924.16992)" gradientUnits="userSpaceOnUse">
            <stop offset="0" stop-color="#fff" stop-opacity="0.1" />
            <stop offset="1" stop-color="#fff" stop-opacity="0" />
        </radialGradient>
    </defs>
    <title>Google Maps</title>
    <g style="clip-path:url(#clip-path)">
        <g style="clip-path:url(#clip-path-2)">
            <g style="clip-path:url(#clip-path-3)">
                <path d="M19.99564,163.99871V19.99564H163.99871L95.99385,95.99385" style="fill:#0f9d58" />
                <path d="M28.00128,171.99205l67.99257-75.9982,67.99257,75.9982" style="fill:#4285f4" />
                <path d="M171.99205,163.99871,95.99385,95.99385l75.9982-67.99257" style="fill:#e1e1e1" />
                <path d="M171.99205,163.99871,95.99385,95.99385l75.9982-67.99257" style="fill:#c2c2c2;opacity:0.5;isolation:isolate" />
                <path d="M100.00281,88.00051,85.996,100.00281l72.00153,72.00153h25.99679" style="fill:#f1f1f1" />
                <path d="M171.99205,8.00564,8.00564,171.99205H34.00243L171.99205,34.00243" style="fill:#ffeb3b" />
                <path d="M171.99205,8.00564,8.00564,171.99205H34.00243L171.99205,34.00243" style="fill:#ffcd40;opacity:0.5;isolation:isolate" />
                <path d="M159.98975,19.99564H31.97335A12.03921,12.03921,0,0,0,19.99564,31.97335v.9961A12.03921,12.03921,0,0,1,31.97335,21.004h128.0164a12.0392,12.0392,0,0,1,12.0023,12.00231v-1.033A12.03921,12.03921,0,0,0,159.98975,19.99564Z" style="fill:#fff;fill-opacity:0.200000002980232" />
                <path d="M159.98975,170.93447H31.97335a12.03919,12.03919,0,0,1-12.0023-12.0023v.99609a12.03919,12.03919,0,0,0,12.0023,12.06379h128.0164a12.0392,12.0392,0,0,0,12.0023-12.0023v-.99609A12.03918,12.03918,0,0,1,159.98975,170.93447Z" style="fill:#263238;fill-opacity:0.100000001490116" />
                <path d="M31.97335,31.97335H75.9982V75.9982H31.97335Z" style="fill:none" />
                <path d="M53.99808,50.00141v8.52213H65.84052c-.93461,5.05425-5.374,8.74348-11.84244,8.74348a13.24435,13.24435,0,0,1,0-26.4764A12.00233,12.00233,0,0,1,62.42182,44.074l6.29629-6.29629a21.02864,21.02864,0,0,0-14.75693-5.7552,22.00013,22.00013,0,1,0,0,44.00025c12.70326,0,21.11471-8.94024,21.11471-21.49593a25.28306,25.28306,0,0,0-.40582-4.50086Z" style="fill:#eee" />
            </g>
            <g style="clip-path:url(#clip-path-2)">
                <g style="opacity:0.2;filter:url(#material-drop-shadow-2)">
                    <path d="M147.99974,3.99667a39.9913,39.9913,0,0,0-40.00359,39.979v.02459c0,30.141,33.65811,45.84487,37.64248,88.86134a2.3734,2.3734,0,0,0,4.72221,0c3.98437-43.04106,37.64249-58.7203,37.64249-88.86134a39.99129,39.99129,0,0,0-39.979-40.00358Z" style="fill:#262626" />
                </g>
                <path d="M147.99974,3.99667a39.9913,39.9913,0,0,0-40.00359,39.979v.02459c0,30.141,33.65811,45.84487,37.64248,88.86134a2.3734,2.3734,0,0,0,4.72221,0c3.98437-43.04106,37.64249-58.7203,37.64249-88.86134a39.99129,39.99129,0,0,0-39.979-40.00358Z" style="fill:#db4437" />
                <circle cx="147.99974" cy="44.00025" r="13.99449" style="fill:#7b231e" />
                <path d="M147.99974,5.00506a39.979,39.979,0,0,1,39.979,39.41331v-.41812a40.00359,40.00359,0,0,0-79.99488,0v.41812A39.979,39.979,0,0,1,147.99974,5.00506Z" style="fill:#fff;fill-opacity:0.200000002980232" />
                <path d="M150.36084,131.8532a2.3734,2.3734,0,0,1-4.72221,0c-3.94748-42.8197-37.29815-58.57273-37.61789-88.43092v.578c0,30.141,33.65811,45.84486,37.64248,88.86134a2.37341,2.37341,0,0,0,4.72222,0c3.98436-43.04106,37.64247-58.7203,37.64247-88.86134v-.578C187.659,73.28047,154.32062,89.05809,150.36084,131.8532Z" style="fill:#3e2723;fill-opacity:0.200000002980232" />
            </g>
            <path d="M147.99974,3.99667a39.92984,39.92984,0,0,0-31.97336,15.98668h-84.053a12.0392,12.0392,0,0,0-11.97771,11.99v128.0164a12.03921,12.03921,0,0,0,11.97771,12.0023h128.0164a12.0392,12.0392,0,0,0,12.0023-12.0023V81.655c8.39916-12.29744,15.98668-23.36514,15.98668-37.65478a39.99129,39.99129,0,0,0-39.979-40.00358Z" style="fill:url(#radial-gradient)" />
            <path d="M0,0H192V192H0Z" style="fill:none" />
        </g>
    </g>
</svg>