<?xml version="1.0" encoding="utf-8"?>
<svg version="1.1" id="Content" xmlns="http://www.w3.org/2000/svg" xmlns:xlink="http://www.w3.org/1999/xlink" x="0px" y="0px" width="192px" height="192px" viewBox="0 0 192 192" enable-background="new 0 0 192 192" xml:space="preserve">
    <defs>
        <clipPath id="clip-path">
            <rect width="192" height="192" style="fill:none" />
        </clipPath>
        <clipPath id="clip-path-2">
            <path d="M148.017,4a39.9348,39.9348,0,0,0-31.97657,15.98712H31.97892A12.04,12.04,0,0,0,20,31.97746V159.99737A12.04,12.04,0,0,0,31.97892,172H160.0082a12.04,12.04,0,0,0,12.00351-12.00263V81.6605C180.41171,69.36272,188,58.29471,188,44.00469A39.99386,39.99386,0,0,0,148.017,4Z" style="fill:none" />
        </clipPath>
        <clipPath id="clip-path-3">
            <path d="M32.00259,20H159.99742A12.00258,12.00258,0,0,1,172,32.00258V159.99742A12.00258,12.00258,0,0,1,159.99742,172H32.00259A12.00259,12.00259,0,0,1,20,159.99741V32.00259A12.00259,12.00259,0,0,1,32.00259,20Z" style="fill:none" />
        </clipPath>
        <filter id="material-drop-shadow" x="-50" width="1050" height="242">
            <feGaussianBlur result="blur" stdDeviation="8" in="SourceGraphic" />
            <feOffset result="offsetBlurredGraphic" dx="9" dy="8" in="blur" />
        </filter>
        <radialGradient id="radial-gradient" cx="24.16448" cy="-10900.85402" r="204.88772" gradientTransform="translate(0 10924.16992)" gradientUnits="userSpaceOnUse">
            <stop offset="0" stop-color="#fff" stop-opacity="0.1" />
            <stop offset="1" stop-color="#fff" stop-opacity="0" />
        </radialGradient>
    </defs>
    <title>Google Maps</title>
    <g style="clip-path:url(#clip-path)">
        <g style="clip-path:url(#clip-path-2)">
            <g style="clip-path:url(#clip-path-3)">
                <path d="M20,164V20H164L95.99658,95.99658" style="fill:#0f9d58" />
                <path d="M28,172,96,96l68,76" style="fill:#4285f4" />
                <path d="M172,164,96,95.99385,172,28" style="fill:#e1e1e1" />
                <path d="M172,164,96,95.99385,172,28" style="fill:#c2c2c2;opacity:0.5;isolation:isolate" />
                <path d="M100.007,88,86,100.00176,158.00276,172H184" style="fill:#f1f1f1" />
                <path d="M172,8,8,172H33.999L172,33.999" style="fill:#ffeb3b" />
                <path d="M172,8,8,172H33.999L172,33.999" style="fill:#ffcd40;opacity:0.5;isolation:isolate" />
                <path d="M159.99742,20H31.978A12.03439,12.03439,0,0,0,20,31.96786v.99528A12.03441,12.03441,0,0,1,31.978,21.00756H159.99742A12.0344,12.0344,0,0,1,172,33V31.96786A12.03443,12.03443,0,0,0,159.99742,20Z" style="fill:#fff;opacity:0.2" />
                <path d="M159.99936,170.94727H32.00067A12.01085,12.01085,0,0,1,20,159v.99152A12.01052,12.01052,0,0,0,32.00067,172H159.99936A12.01086,12.01086,0,0,0,172,160.05273v-.99152A12.01119,12.01119,0,0,1,159.99936,170.94727Z" style="fill:#263238;opacity:0.1" />
                <path d="M32,32H76V76H32Z" style="fill:none" />
                <path d="M53.99805,49.98V58.5017H65.83984c-.93455,5.054-5.37368,8.743-11.84179,8.743a13.24362,13.24362,0,0,1,0-26.47495A12.0017,12.0017,0,0,1,62.42134,44.053L68.71728,37.757a21.02743,21.02743,0,0,0-14.75612-5.75489,21.99893,21.99893,0,1,0,0,43.99785c12.70257,0,21.11355-8.93975,21.11355-21.49476a25.28231,25.28231,0,0,0-.40579-4.50062Z" style="fill:#eee" />
            </g>
            <g style="clip-path:url(#clip-path-2)">
                <g style="opacity:0.2;filter:url(#material-drop-shadow)">
                    <path d="M147.99974,4a39.98993,39.98993,0,0,0-40,39.97985v.02459c0,30.14168,33.65509,45.84585,37.6391,88.86323a2.37317,2.37317,0,0,0,4.72179,0c3.984-43.042,37.63911-58.72155,37.63911-88.86323A39.98992,39.98992,0,0,0,148.02434,4Z" style="fill:#262626" />
                </g>
                <path d="M147.99974,4a39.98993,39.98993,0,0,0-40,39.97985v.02459c0,30.14168,33.65509,45.84585,37.6391,88.86323a2.37317,2.37317,0,0,0,4.72179,0c3.984-43.042,37.63911-58.72155,37.63911-88.86323A39.98992,39.98992,0,0,0,148.02434,4Z" style="fill:#db4437" />
                <circle cx="147.99974" cy="44" r="14" style="fill:#7b231e" />
                <path d="M150.36066,131.86768a2.37318,2.37318,0,0,1-4.72181,0c-3.96551-42.81757-37.31494-58.58027-37.62475-88.44928-.00263.18768-.01428.37316-.01434.56146v.0246c0,30.14166,33.65509,45.84582,37.63909,88.86322a2.37318,2.37318,0,0,0,4.72181,0c3.984-43.042,37.6391-58.72156,37.6391-88.86322.00006-.19507-.01178-.38727-.01453-.58167C187.67206,73.2887,154.326,89.02777,150.36066,131.86768Z" style="fill:#3e2723;opacity:0.2" />
                <path d="M147.99976,5h.02459a39.983,39.983,0,0,1,39.96088,39.42279c.00146-.14087.01453-.27679.01453-.41833A39.98991,39.98991,0,0,0,148.02435,4h-.02459a39.9899,39.9899,0,0,0-40,39.97986v.0246c0,.14.01287.27453.01434.41394A39.98326,39.98326,0,0,1,147.99976,5Z" style="fill:#fff;opacity:0.2" />
            </g>
            <path d="M147.99974,3.99667a39.92984,39.92984,0,0,0-31.97336,15.98668h-84.053a12.0392,12.0392,0,0,0-11.97771,11.99v128.0164a12.03921,12.03921,0,0,0,11.97771,12.0023h128.0164a12.0392,12.0392,0,0,0,12.0023-12.0023V81.655c8.39916-12.29744,15.98668-23.36514,15.98668-37.65478a39.99129,39.99129,0,0,0-39.979-40.00358Z" style="fill:url(#radial-gradient)" />
            <path d="M0,0H192V192H0Z" style="fill:none" />
        </g>
    </g>
</svg>