<?xml version="1.0" encoding="utf-8"?>
<svg version="1.1" id="Content" xmlns="http://www.w3.org/2000/svg" xmlns:xlink="http://www.w3.org/1999/xlink" viewBox="0 0 35 35" xml:space="preserve">
    <defs>
        <style>.cls-2{fill:none;}.cls-3{fill:#1a73e8;}.cls-4,.cls-8{fill:#fff;}.cls-4{opacity:0.2;isolation:isolate;}.cls-5{fill:#1a237e;fill-opacity:0.2;}.cls-6{fill:#185abc;}.cls-7{fill:#f1f3f4;}.cls-9{fill:#bdc1c6;}</style>
    </defs>
    <g>
        <rect class="cls-2" x="-0.05" width="35" height="35" />
        <g>
            <path class="cls-3" d="M33.5,18.41a16.05,16.05,0,1,1-16-17H30.94A2.57,2.57,0,0,1,33.5,4Z" />
            <path class="cls-4" d="M30.94,1.46H17.45a16,16,0,0,0-16,16s0,0,0,0a16,16,0,0,1,16-15.85H30.94A2.57,2.57,0,0,1,33.5,4.19V4A2.57,2.57,0,0,0,30.94,1.46Z" />
            <g>
                <path class="cls-5" d="M33.5,18.41V18a16,16,0,0,1-32.08-.73s0,.15,0,.18a16.05,16.05,0,0,0,32.08.73" />
            </g>
            <path class="cls-6" d="M24,20.6a2.55,2.55,0,0,1-2.73,2.55H12.17a2.55,2.55,0,0,1-2.73-2.54v.9a2.7,2.7,0,0,0,2.73,2.73h9.11A2.7,2.7,0,0,0,24,21.51V20.6Z" />
            <path class="cls-6" d="M28.39,21.33a.54.54,0,0,1-.91.36L24,18.23v.91l3.46,3.46a.52.52,0,0,0,.91-.36Z" />
            <g>
                <path class="cls-7" d="M27.48,12.58,24,16v2.19l3.46,3.46a.53.53,0,0,0,.91-.36V12.94A.54.54,0,0,0,27.48,12.58Z" />
                <path class="cls-8" d="M21.28,10.94H12.17a2.73,2.73,0,0,0-2.73,2.73V20.6a2.72,2.72,0,0,0,2.73,2.73h9.11A2.73,2.73,0,0,0,24,20.6V13.67A2.72,2.72,0,0,0,21.28,10.94Z" />
                <g>
                    <polygon class="cls-9" points="24.02 18.45 24.02 18.23 24.75 18.96 24.75 15.31 24.02 16.04 24.02 18.45" />
                </g>
            </g>
        </g>
    </g>
</svg>