<?xml version="1.0" encoding="utf-8"?>
<svg version="1.1" id="Content" xmlns="http://www.w3.org/2000/svg" xmlns:xlink="http://www.w3.org/1999/xlink" viewBox="-.5 -.2 49 49" xml:space="preserve">
    <g>
        <path style="fill: #1a73e8;" d="M48,25.36A24,24,0,1,1,24,0H44.18A3.84,3.84,0,0,1,48,3.82Z"></path>
        <path style="opacity: 0.2; isolation: isolate; fill: #fff;"
            d="M44.18,0H24A24,24,0,0,0,0,24s0-.05,0,0A23.87,23.87,0,0,1,24,.27H44.18A3.84,3.84,0,0,1,48,4.09V3.82A3.84,3.84,0,0,0,44.18,0Z">
        </path>
        <g>
            <path style="fill: #1a237e; fill-opacity: 0.2;"
                d="M48,25.36v-.55A24.18,24.18,0,0,1,24,47.73a24.11,24.11,0,0,1-24-24S0,24,0,24a24,24,0,0,0,48,1.09">
            </path>
        </g>
        <path style="fill: #185abc;"
            d="M33.82,28.64a3.82,3.82,0,0,1-4.09,3.82H16.09A3.81,3.81,0,0,1,12,28.65V30a4,4,0,0,0,4.09,4.09H29.73A4,4,0,0,0,33.82,30V28.64Z">
        </path>
        <path style="fill: #185abc;"
            d="M40.36,29.73a.81.81,0,0,1-1.36.55l-5.18-5.18v1.36L39,31.64a.78.78,0,0,0,1.36-.55Z"></path>
        <g>
            <path style="fill: #f1f3f4;"
                d="M39,16.64l-5.18,5.18v3.27L39,30.27a.79.79,0,0,0,1.36-.55V17.18A.8.8,0,0,0,39,16.64Z"></path>
            <path style="fill: #fff;"
                d="M29.73,14.18H16.09A4.08,4.08,0,0,0,12,18.27V28.64a4.08,4.08,0,0,0,4.09,4.09H29.73a4.08,4.08,0,0,0,4.09-4.09V18.27A4.08,4.08,0,0,0,29.73,14.18Z">
            </path>
            <g>
                <polygon style="fill: #bdc1c6;"
                    points="33.82 25.42 33.82 25.09 34.91 26.18 34.91 20.73 33.82 21.82 33.82 25.42"></polygon>
            </g>
        </g>
    </g>
</svg>