<?xml version="1.0" encoding="utf-8"?>
<svg version="1.1" id="Content" xmlns="http://www.w3.org/2000/svg" xmlns:xlink="http://www.w3.org/1999/xlink" x="0px" y="0px" width="192px" height="192px" viewBox="0 0 192 192" enable-background="new 0 0 192 192" xml:space="preserve">
    <title>Google Duo</title>
    <path d="M91.0813,183.85608A88.02977,88.02977,0,0,1,8.00653,96.27972,88.07061,88.07061,0,0,0,184,101.98541v-1A88.04383,88.04383,0,0,1,91.0813,183.85608Z" style="fill:#1a237e;opacity:0.2" />
    <path d="M184,100.9854A88.0693,88.0693,0,1,1,95.9305,8h74.05177A14.08546,14.08546,0,0,1,184,22.00648Z" style="fill:#1a73e8" />
    <path d="M169.9823,8H95.93048A88.03892,88.03892,0,0,0,8.144,91.012c-.10034,1.76612-.14148,3.52161-.13751,5.26776q.01905-2.12429.13751-4.26776A88.03892,88.03892,0,0,1,95.93048,9H169.9823A14.08547,14.08547,0,0,1,184,23.00647v-1A14.08547,14.08547,0,0,0,169.9823,8Z" style="fill:#fff;opacity:0.2" />
    <path d="M117.00458,127.99994H66.99542q-.0367.00009-.07342,0a14.9575,14.9575,0,0,1-14.92194-14.993v5a14.9575,14.9575,0,0,0,14.92194,14.993q.03671.00009.07342,0h50.00916a14.95751,14.95751,0,0,0,14.99536-14.91956q.00009-.03671,0-.07342v-4.92658A14.95751,14.95751,0,0,1,117.00458,127.99994Z" style="fill:#185abc" />
    <path d="M117.00455,60.00005H66.99545a14.95753,14.95753,0,0,0-14.9954,14.91956q-.00009.0367,0,.07341v38.014A14.9575,14.9575,0,0,0,66.922,128q.0367.00009.07342,0h50.0091A14.95753,14.95753,0,0,0,132,113.08039q.00009-.0367,0-.07341V74.993a14.95751,14.95751,0,0,0-14.922-14.993Q117.04127,60,117.00455,60.00005Z" style="fill:#fff" />
    <path d="M151.00916,118.95984,132,99.96906v5l19.00916,18.99078A2.89912,2.89912,0,0,0,156,121.94348v-5a2.89912,2.89912,0,0,1-4.99084,2.01636Z" style="fill:#185abc" />
    <path d="M151.00916,68.98977,132,87.9806V99.969l19.00916,18.99084A2.89911,2.89911,0,0,0,156,116.94347v-45.974a2.93647,2.93647,0,0,0-4.99082-1.97974Z" style="fill:#f1f3f4" />
    <polygon points="136 84.01 132 88.006 132 99.994 136 103.99 136 84.01" style="fill:#bdc1c6" />
</svg>